<mxfile host="app.diagrams.net" modified="2021-03-05T16:59:36.768Z" agent="5.0 (Windows NT 10.0; Win64; x64) AppleWebKit/537.36 (KHTML, like Gecko) Chrome/88.0.4324.190 Safari/537.36" etag="0vSnelNvyKjuL6ZW9o58" version="14.4.4" type="github">
  <diagram id="R2lEEEUBdFMjLlhIrx00" name="Page-1">
    <mxGraphModel dx="1790" dy="585" grid="1" gridSize="10" guides="1" tooltips="1" connect="1" arrows="1" fold="1" page="1" pageScale="1" pageWidth="850" pageHeight="1100" math="0" shadow="0" extFonts="Permanent Marker^https://fonts.googleapis.com/css?family=Permanent+Marker">
      <root>
        <mxCell id="0" />
        <mxCell id="1" parent="0" />
        <mxCell id="4-IF-Jm48n_dMOYQNF0S-2" value="Sigla" style="ellipse;whiteSpace=wrap;html=1;align=center;fontStyle=4;" parent="1" vertex="1">
          <mxGeometry x="450" y="200" width="60" height="40" as="geometry" />
        </mxCell>
        <mxCell id="4-IF-Jm48n_dMOYQNF0S-3" value="" style="endArrow=none;html=1;rounded=0;exitX=1;exitY=0.25;exitDx=0;exitDy=0;entryX=0.5;entryY=1;entryDx=0;entryDy=0;" parent="1" source="a2vKskjHlxZWwo24lEaI-6" target="4-IF-Jm48n_dMOYQNF0S-2" edge="1">
          <mxGeometry relative="1" as="geometry">
            <mxPoint x="480" y="290" as="sourcePoint" />
            <mxPoint x="570" y="340" as="targetPoint" />
            <Array as="points">
              <mxPoint x="480" y="310" />
            </Array>
          </mxGeometry>
        </mxCell>
        <mxCell id="4-IF-Jm48n_dMOYQNF0S-5" value="Nome" style="ellipse;whiteSpace=wrap;html=1;align=center;" parent="1" vertex="1">
          <mxGeometry x="410" y="240" width="60" height="40" as="geometry" />
        </mxCell>
        <mxCell id="4-IF-Jm48n_dMOYQNF0S-6" value="" style="endArrow=none;html=1;rounded=0;exitX=0.5;exitY=1;exitDx=0;exitDy=0;entryX=0.837;entryY=-0.01;entryDx=0;entryDy=0;entryPerimeter=0;" parent="1" source="4-IF-Jm48n_dMOYQNF0S-5" target="a2vKskjHlxZWwo24lEaI-6" edge="1">
          <mxGeometry relative="1" as="geometry">
            <mxPoint x="410" y="340" as="sourcePoint" />
            <mxPoint x="450" y="290" as="targetPoint" />
          </mxGeometry>
        </mxCell>
        <mxCell id="4-IF-Jm48n_dMOYQNF0S-7" value="Custo" style="ellipse;whiteSpace=wrap;html=1;align=center;" parent="1" vertex="1">
          <mxGeometry x="380" y="110" width="60" height="40" as="geometry" />
        </mxCell>
        <mxCell id="4-IF-Jm48n_dMOYQNF0S-8" value="" style="endArrow=none;html=1;rounded=0;exitX=0.5;exitY=1;exitDx=0;exitDy=0;" parent="1" source="4-IF-Jm48n_dMOYQNF0S-7" edge="1">
          <mxGeometry relative="1" as="geometry">
            <mxPoint x="410" y="340" as="sourcePoint" />
            <mxPoint x="410" y="290" as="targetPoint" />
          </mxGeometry>
        </mxCell>
        <mxCell id="4-IF-Jm48n_dMOYQNF0S-10" value="" style="endArrow=none;html=1;rounded=0;exitX=0.5;exitY=1;exitDx=0;exitDy=0;entryX=0.25;entryY=0;entryDx=0;entryDy=0;" parent="1" source="a2vKskjHlxZWwo24lEaI-7" edge="1" target="a2vKskjHlxZWwo24lEaI-6">
          <mxGeometry relative="1" as="geometry">
            <mxPoint x="390" y="250" as="sourcePoint" />
            <mxPoint x="390" y="290" as="targetPoint" />
          </mxGeometry>
        </mxCell>
        <mxCell id="4-IF-Jm48n_dMOYQNF0S-11" value="CPF" style="ellipse;whiteSpace=wrap;html=1;align=center;" parent="1" vertex="1">
          <mxGeometry x="280" y="190" width="60" height="40" as="geometry" />
        </mxCell>
        <mxCell id="4-IF-Jm48n_dMOYQNF0S-12" value="" style="endArrow=none;html=1;rounded=0;exitX=1;exitY=0.5;exitDx=0;exitDy=0;entryX=0;entryY=0;entryDx=0;entryDy=0;" parent="1" source="4-IF-Jm48n_dMOYQNF0S-11" edge="1">
          <mxGeometry relative="1" as="geometry">
            <mxPoint x="410" y="340" as="sourcePoint" />
            <mxPoint x="368.78679656440363" y="215.85786437626916" as="targetPoint" />
          </mxGeometry>
        </mxCell>
        <mxCell id="4-IF-Jm48n_dMOYQNF0S-14" value="" style="endArrow=none;html=1;rounded=0;entryX=0.5;entryY=0;entryDx=0;entryDy=0;" parent="1" target="a2vKskjHlxZWwo24lEaI-7" edge="1">
          <mxGeometry relative="1" as="geometry">
            <mxPoint x="370" y="190" as="sourcePoint" />
            <mxPoint x="390" y="210" as="targetPoint" />
          </mxGeometry>
        </mxCell>
        <mxCell id="4-IF-Jm48n_dMOYQNF0S-15" value="Nome" style="ellipse;whiteSpace=wrap;html=1;align=center;" parent="1" vertex="1">
          <mxGeometry x="340" y="150" width="60" height="40" as="geometry" />
        </mxCell>
        <mxCell id="4-IF-Jm48n_dMOYQNF0S-17" value="Hora" style="ellipse;whiteSpace=wrap;html=1;align=center;dashed=1;" parent="1" vertex="1">
          <mxGeometry x="280" y="240" width="60" height="40" as="geometry" />
        </mxCell>
        <mxCell id="4-IF-Jm48n_dMOYQNF0S-18" value="" style="endArrow=none;html=1;rounded=0;entryX=1;entryY=0.75;entryDx=0;entryDy=0;entryPerimeter=0;exitX=0;exitY=0;exitDx=0;exitDy=0;" parent="1" source="a2vKskjHlxZWwo24lEaI-6" target="4-IF-Jm48n_dMOYQNF0S-17" edge="1">
          <mxGeometry relative="1" as="geometry">
            <mxPoint x="360" y="290" as="sourcePoint" />
            <mxPoint x="570" y="340" as="targetPoint" />
          </mxGeometry>
        </mxCell>
        <mxCell id="4-IF-Jm48n_dMOYQNF0S-19" value="Pertence" style="shape=rhombus;perimeter=rhombusPerimeter;whiteSpace=wrap;html=1;align=center;" parent="1" vertex="1">
          <mxGeometry x="360" y="390" width="80" height="80" as="geometry" />
        </mxCell>
        <mxCell id="4-IF-Jm48n_dMOYQNF0S-23" value="" style="endArrow=none;html=1;rounded=0;exitX=0.5;exitY=1;exitDx=0;exitDy=0;" parent="1" source="4-IF-Jm48n_dMOYQNF0S-19" target="4-IF-Jm48n_dMOYQNF0S-25" edge="1">
          <mxGeometry relative="1" as="geometry">
            <mxPoint x="410" y="340" as="sourcePoint" />
            <mxPoint x="425" y="530" as="targetPoint" />
          </mxGeometry>
        </mxCell>
        <mxCell id="4-IF-Jm48n_dMOYQNF0S-24" value="N" style="resizable=0;html=1;align=right;verticalAlign=bottom;" parent="4-IF-Jm48n_dMOYQNF0S-23" connectable="0" vertex="1">
          <mxGeometry x="1" relative="1" as="geometry">
            <mxPoint x="-10" as="offset" />
          </mxGeometry>
        </mxCell>
        <mxCell id="4-IF-Jm48n_dMOYQNF0S-25" value="Área de Conhecimento" style="whiteSpace=wrap;html=1;align=center;" parent="1" vertex="1">
          <mxGeometry x="340" y="490" width="120" height="80" as="geometry" />
        </mxCell>
        <mxCell id="4-IF-Jm48n_dMOYQNF0S-26" value="" style="endArrow=none;html=1;rounded=0;exitX=1;exitY=0.5;exitDx=0;exitDy=0;entryX=0;entryY=0.5;entryDx=0;entryDy=0;" parent="1" source="4-IF-Jm48n_dMOYQNF0S-25" target="4-IF-Jm48n_dMOYQNF0S-28" edge="1">
          <mxGeometry relative="1" as="geometry">
            <mxPoint x="410" y="630" as="sourcePoint" />
            <mxPoint x="520" y="570" as="targetPoint" />
          </mxGeometry>
        </mxCell>
        <mxCell id="4-IF-Jm48n_dMOYQNF0S-27" value="&lt;font style=&quot;vertical-align: inherit&quot;&gt;&lt;font style=&quot;vertical-align: inherit&quot;&gt;N&lt;/font&gt;&lt;/font&gt;" style="resizable=0;html=1;align=right;verticalAlign=bottom;" parent="4-IF-Jm48n_dMOYQNF0S-26" connectable="0" vertex="1">
          <mxGeometry x="1" relative="1" as="geometry">
            <mxPoint y="-10" as="offset" />
          </mxGeometry>
        </mxCell>
        <mxCell id="4-IF-Jm48n_dMOYQNF0S-28" value="Integrada" style="shape=rhombus;perimeter=rhombusPerimeter;whiteSpace=wrap;html=1;align=center;" parent="1" vertex="1">
          <mxGeometry x="480" y="490" width="80" height="80" as="geometry" />
        </mxCell>
        <mxCell id="4-IF-Jm48n_dMOYQNF0S-29" value="" style="endArrow=none;html=1;rounded=0;entryX=0.5;entryY=1;entryDx=0;entryDy=0;exitX=0.5;exitY=1;exitDx=0;exitDy=0;" parent="1" edge="1" target="4-IF-Jm48n_dMOYQNF0S-28" source="4-IF-Jm48n_dMOYQNF0S-25">
          <mxGeometry relative="1" as="geometry">
            <mxPoint x="420" y="580" as="sourcePoint" />
            <mxPoint x="560" y="575" as="targetPoint" />
            <Array as="points">
              <mxPoint x="400" y="590" />
              <mxPoint x="520" y="590" />
            </Array>
          </mxGeometry>
        </mxCell>
        <mxCell id="4-IF-Jm48n_dMOYQNF0S-30" value="1" style="resizable=0;html=1;align=right;verticalAlign=bottom;" parent="4-IF-Jm48n_dMOYQNF0S-29" connectable="0" vertex="1">
          <mxGeometry x="1" relative="1" as="geometry">
            <mxPoint x="-40" y="9.9" as="offset" />
          </mxGeometry>
        </mxCell>
        <mxCell id="4-IF-Jm48n_dMOYQNF0S-32" value="Nome" style="ellipse;whiteSpace=wrap;html=1;align=center;" parent="1" vertex="1">
          <mxGeometry x="270" y="530" width="60" height="40" as="geometry" />
        </mxCell>
        <mxCell id="4-IF-Jm48n_dMOYQNF0S-33" value="Sigla" style="ellipse;whiteSpace=wrap;html=1;align=center;fontStyle=4;" parent="1" vertex="1">
          <mxGeometry x="270" y="490" width="60" height="40" as="geometry" />
        </mxCell>
        <mxCell id="4-IF-Jm48n_dMOYQNF0S-34" value="" style="endArrow=none;html=1;rounded=0;exitX=1;exitY=0.5;exitDx=0;exitDy=0;entryX=0;entryY=0.25;entryDx=0;entryDy=0;" parent="1" source="4-IF-Jm48n_dMOYQNF0S-33" target="4-IF-Jm48n_dMOYQNF0S-25" edge="1">
          <mxGeometry relative="1" as="geometry">
            <mxPoint x="410" y="630" as="sourcePoint" />
            <mxPoint x="570" y="630" as="targetPoint" />
          </mxGeometry>
        </mxCell>
        <mxCell id="4-IF-Jm48n_dMOYQNF0S-35" value="" style="line;strokeWidth=1;rotatable=0;dashed=0;labelPosition=right;align=left;verticalAlign=middle;spacingTop=0;spacingLeft=6;points=[];portConstraint=eastwest;" parent="1" vertex="1">
          <mxGeometry x="330" y="545" width="10" height="10" as="geometry" />
        </mxCell>
        <mxCell id="4-IF-Jm48n_dMOYQNF0S-37" value="Matricular" style="shape=rhombus;perimeter=rhombusPerimeter;whiteSpace=wrap;html=1;align=center;" parent="1" vertex="1">
          <mxGeometry x="480" y="290" width="80" height="80" as="geometry" />
        </mxCell>
        <mxCell id="4-IF-Jm48n_dMOYQNF0S-38" value="Alunos" style="whiteSpace=wrap;html=1;align=center;" parent="1" vertex="1">
          <mxGeometry x="590" y="290" width="120" height="80" as="geometry" />
        </mxCell>
        <mxCell id="4-IF-Jm48n_dMOYQNF0S-40" value="" style="endArrow=none;html=1;rounded=0;" parent="1" edge="1">
          <mxGeometry relative="1" as="geometry">
            <mxPoint x="480" y="330" as="sourcePoint" />
            <mxPoint x="480" y="330" as="targetPoint" />
            <Array as="points">
              <mxPoint x="460" y="330" />
              <mxPoint x="480" y="330" />
            </Array>
          </mxGeometry>
        </mxCell>
        <mxCell id="4-IF-Jm48n_dMOYQNF0S-41" value="N" style="resizable=0;html=1;align=right;verticalAlign=bottom;" parent="4-IF-Jm48n_dMOYQNF0S-40" connectable="0" vertex="1">
          <mxGeometry x="1" relative="1" as="geometry">
            <mxPoint x="-40" y="20" as="offset" />
          </mxGeometry>
        </mxCell>
        <mxCell id="4-IF-Jm48n_dMOYQNF0S-42" value="" style="endArrow=none;html=1;rounded=0;exitX=1;exitY=0.5;exitDx=0;exitDy=0;entryX=0;entryY=0.5;entryDx=0;entryDy=0;" parent="1" source="4-IF-Jm48n_dMOYQNF0S-37" target="4-IF-Jm48n_dMOYQNF0S-38" edge="1">
          <mxGeometry relative="1" as="geometry">
            <mxPoint x="410" y="330" as="sourcePoint" />
            <mxPoint x="570" y="330" as="targetPoint" />
          </mxGeometry>
        </mxCell>
        <mxCell id="4-IF-Jm48n_dMOYQNF0S-43" value="N" style="resizable=0;html=1;align=right;verticalAlign=bottom;" parent="4-IF-Jm48n_dMOYQNF0S-42" connectable="0" vertex="1">
          <mxGeometry x="1" relative="1" as="geometry">
            <mxPoint x="-10" y="-10" as="offset" />
          </mxGeometry>
        </mxCell>
        <mxCell id="4-IF-Jm48n_dMOYQNF0S-44" value="CPF" style="ellipse;whiteSpace=wrap;html=1;align=center;fontStyle=4;" parent="1" vertex="1">
          <mxGeometry x="590" y="240" width="60" height="40" as="geometry" />
        </mxCell>
        <mxCell id="4-IF-Jm48n_dMOYQNF0S-45" value="Data de Nascimento" style="ellipse;whiteSpace=wrap;html=1;align=center;" parent="1" vertex="1">
          <mxGeometry x="610" y="200" width="80" height="40" as="geometry" />
        </mxCell>
        <mxCell id="4-IF-Jm48n_dMOYQNF0S-47" value="Sexo" style="ellipse;whiteSpace=wrap;html=1;align=center;" parent="1" vertex="1">
          <mxGeometry x="650" y="240" width="60" height="40" as="geometry" />
        </mxCell>
        <mxCell id="4-IF-Jm48n_dMOYQNF0S-48" value="" style="endArrow=none;html=1;rounded=0;exitX=0.5;exitY=1;exitDx=0;exitDy=0;entryX=0.5;entryY=0;entryDx=0;entryDy=0;" parent="1" source="4-IF-Jm48n_dMOYQNF0S-45" target="4-IF-Jm48n_dMOYQNF0S-38" edge="1">
          <mxGeometry relative="1" as="geometry">
            <mxPoint x="410" y="330" as="sourcePoint" />
            <mxPoint x="570" y="330" as="targetPoint" />
          </mxGeometry>
        </mxCell>
        <mxCell id="4-IF-Jm48n_dMOYQNF0S-49" value="" style="endArrow=none;html=1;rounded=0;entryX=0.5;entryY=1;entryDx=0;entryDy=0;exitX=0.25;exitY=0;exitDx=0;exitDy=0;" parent="1" source="4-IF-Jm48n_dMOYQNF0S-38" target="4-IF-Jm48n_dMOYQNF0S-44" edge="1">
          <mxGeometry relative="1" as="geometry">
            <mxPoint x="410" y="330" as="sourcePoint" />
            <mxPoint x="570" y="330" as="targetPoint" />
          </mxGeometry>
        </mxCell>
        <mxCell id="4-IF-Jm48n_dMOYQNF0S-50" value="" style="endArrow=none;html=1;rounded=0;exitX=0.5;exitY=1;exitDx=0;exitDy=0;entryX=0.75;entryY=0;entryDx=0;entryDy=0;" parent="1" source="4-IF-Jm48n_dMOYQNF0S-47" target="4-IF-Jm48n_dMOYQNF0S-38" edge="1">
          <mxGeometry relative="1" as="geometry">
            <mxPoint x="410" y="330" as="sourcePoint" />
            <mxPoint x="570" y="330" as="targetPoint" />
          </mxGeometry>
        </mxCell>
        <mxCell id="4-IF-Jm48n_dMOYQNF0S-52" value="Nome" style="ellipse;whiteSpace=wrap;html=1;align=center;" parent="1" vertex="1">
          <mxGeometry x="620" y="380" width="60" height="40" as="geometry" />
        </mxCell>
        <mxCell id="4-IF-Jm48n_dMOYQNF0S-53" value="" style="endArrow=none;html=1;rounded=0;exitX=0.5;exitY=1;exitDx=0;exitDy=0;entryX=0.5;entryY=0;entryDx=0;entryDy=0;" parent="1" source="4-IF-Jm48n_dMOYQNF0S-38" target="4-IF-Jm48n_dMOYQNF0S-52" edge="1">
          <mxGeometry relative="1" as="geometry">
            <mxPoint x="410" y="330" as="sourcePoint" />
            <mxPoint x="570" y="330" as="targetPoint" />
          </mxGeometry>
        </mxCell>
        <mxCell id="4-IF-Jm48n_dMOYQNF0S-55" value="" style="endArrow=none;html=1;rounded=0;entryX=0;entryY=1;entryDx=0;entryDy=0;exitX=1;exitY=0;exitDx=0;exitDy=0;" parent="1" target="4-IF-Jm48n_dMOYQNF0S-52" edge="1" source="4-IF-Jm48n_dMOYQNF0S-58">
          <mxGeometry relative="1" as="geometry">
            <mxPoint x="670" y="450" as="sourcePoint" />
            <mxPoint x="570" y="330" as="targetPoint" />
          </mxGeometry>
        </mxCell>
        <mxCell id="4-IF-Jm48n_dMOYQNF0S-56" value="" style="endArrow=none;html=1;rounded=0;entryX=1;entryY=1;entryDx=0;entryDy=0;" parent="1" target="4-IF-Jm48n_dMOYQNF0S-52" edge="1" source="4-IF-Jm48n_dMOYQNF0S-59">
          <mxGeometry relative="1" as="geometry">
            <mxPoint x="700" y="410" as="sourcePoint" />
            <mxPoint x="570" y="330" as="targetPoint" />
          </mxGeometry>
        </mxCell>
        <mxCell id="4-IF-Jm48n_dMOYQNF0S-58" value="Primeiro Nome" style="ellipse;whiteSpace=wrap;html=1;align=center;" parent="1" vertex="1">
          <mxGeometry x="570" y="420" width="60" height="40" as="geometry" />
        </mxCell>
        <mxCell id="4-IF-Jm48n_dMOYQNF0S-59" value="Sobrenome" style="ellipse;whiteSpace=wrap;html=1;align=center;" parent="1" vertex="1">
          <mxGeometry x="660" y="430" width="80" height="40" as="geometry" />
        </mxCell>
        <mxCell id="4-IF-Jm48n_dMOYQNF0S-60" value="&lt;font style=&quot;vertical-align: inherit&quot;&gt;&lt;font style=&quot;vertical-align: inherit&quot;&gt;Possui&lt;/font&gt;&lt;/font&gt;" style="shape=rhombus;perimeter=rhombusPerimeter;whiteSpace=wrap;html=1;align=center;" parent="1" vertex="1">
          <mxGeometry x="230" y="290" width="80" height="80" as="geometry" />
        </mxCell>
        <mxCell id="4-IF-Jm48n_dMOYQNF0S-61" value="" style="endArrow=none;html=1;rounded=0;" parent="1" edge="1">
          <mxGeometry relative="1" as="geometry">
            <mxPoint x="310" y="329.5" as="sourcePoint" />
            <mxPoint x="340" y="330" as="targetPoint" />
            <Array as="points">
              <mxPoint x="310" y="329.5" />
            </Array>
          </mxGeometry>
        </mxCell>
        <mxCell id="4-IF-Jm48n_dMOYQNF0S-62" value="1" style="resizable=0;html=1;align=right;verticalAlign=bottom;" parent="4-IF-Jm48n_dMOYQNF0S-61" connectable="0" vertex="1">
          <mxGeometry x="1" relative="1" as="geometry">
            <mxPoint x="-10" y="-10" as="offset" />
          </mxGeometry>
        </mxCell>
        <mxCell id="4-IF-Jm48n_dMOYQNF0S-66" value="" style="endArrow=none;html=1;rounded=0;entryX=0.25;entryY=1;entryDx=0;entryDy=0;" parent="1" edge="1" source="4-IF-Jm48n_dMOYQNF0S-67">
          <mxGeometry relative="1" as="geometry">
            <mxPoint x="110" y="410" as="sourcePoint" />
            <mxPoint x="110" y="370" as="targetPoint" />
          </mxGeometry>
        </mxCell>
        <mxCell id="4-IF-Jm48n_dMOYQNF0S-69" value="Sigla" style="ellipse;whiteSpace=wrap;html=1;align=center;fontStyle=4;" parent="1" vertex="1">
          <mxGeometry x="140" y="380" width="60" height="40" as="geometry" />
        </mxCell>
        <mxCell id="4-IF-Jm48n_dMOYQNF0S-70" value="" style="endArrow=none;html=1;rounded=0;exitX=0.75;exitY=1;exitDx=0;exitDy=0;entryX=0.5;entryY=0;entryDx=0;entryDy=0;" parent="1" target="4-IF-Jm48n_dMOYQNF0S-69" edge="1">
          <mxGeometry relative="1" as="geometry">
            <mxPoint x="170" y="370" as="sourcePoint" />
            <mxPoint x="390" y="330" as="targetPoint" />
          </mxGeometry>
        </mxCell>
        <mxCell id="4-IF-Jm48n_dMOYQNF0S-72" value="" style="shape=link;html=1;rounded=0;exitX=1;exitY=0.5;exitDx=0;exitDy=0;entryX=0;entryY=0.5;entryDx=0;entryDy=0;" parent="1" target="4-IF-Jm48n_dMOYQNF0S-60" edge="1">
          <mxGeometry relative="1" as="geometry">
            <mxPoint x="200" y="330" as="sourcePoint" />
            <mxPoint x="260" y="300" as="targetPoint" />
          </mxGeometry>
        </mxCell>
        <mxCell id="4-IF-Jm48n_dMOYQNF0S-73" value="N" style="resizable=0;html=1;align=right;verticalAlign=bottom;" parent="4-IF-Jm48n_dMOYQNF0S-72" connectable="0" vertex="1">
          <mxGeometry x="1" relative="1" as="geometry">
            <mxPoint x="-10" y="-10" as="offset" />
          </mxGeometry>
        </mxCell>
        <mxCell id="4-IF-Jm48n_dMOYQNF0S-74" value="Tópicos" style="shape=ext;margin=3;double=1;whiteSpace=wrap;html=1;align=center;" parent="1" vertex="1">
          <mxGeometry x="80" y="80" width="120" height="80" as="geometry" />
        </mxCell>
        <mxCell id="4-IF-Jm48n_dMOYQNF0S-75" value="" style="endArrow=none;html=1;rounded=0;exitX=0.5;exitY=1;exitDx=0;exitDy=0;entryX=0.5;entryY=0;entryDx=0;entryDy=0;" parent="1" edge="1">
          <mxGeometry relative="1" as="geometry">
            <mxPoint x="140" y="250" as="sourcePoint" />
            <mxPoint x="140" y="290" as="targetPoint" />
          </mxGeometry>
        </mxCell>
        <mxCell id="4-IF-Jm48n_dMOYQNF0S-76" value="1" style="resizable=0;html=1;align=right;verticalAlign=bottom;" parent="4-IF-Jm48n_dMOYQNF0S-75" connectable="0" vertex="1">
          <mxGeometry x="1" relative="1" as="geometry">
            <mxPoint x="10" as="offset" />
          </mxGeometry>
        </mxCell>
        <mxCell id="4-IF-Jm48n_dMOYQNF0S-77" value="" style="shape=link;html=1;rounded=0;entryX=0.5;entryY=0;entryDx=0;entryDy=0;" parent="1" edge="1">
          <mxGeometry relative="1" as="geometry">
            <mxPoint x="140" y="160" as="sourcePoint" />
            <mxPoint x="140" y="200" as="targetPoint" />
          </mxGeometry>
        </mxCell>
        <mxCell id="4-IF-Jm48n_dMOYQNF0S-78" value="N" style="resizable=0;html=1;align=right;verticalAlign=bottom;" parent="4-IF-Jm48n_dMOYQNF0S-77" connectable="0" vertex="1">
          <mxGeometry x="1" relative="1" as="geometry">
            <mxPoint x="20" y="-10" as="offset" />
          </mxGeometry>
        </mxCell>
        <mxCell id="4-IF-Jm48n_dMOYQNF0S-80" value="" style="line;strokeWidth=1;rotatable=0;dashed=0;labelPosition=right;align=left;verticalAlign=middle;spacingTop=0;spacingLeft=6;points=[];portConstraint=eastwest;" parent="1" vertex="1">
          <mxGeometry x="200" y="135" width="10" height="10" as="geometry" />
        </mxCell>
        <mxCell id="4-IF-Jm48n_dMOYQNF0S-81" value="Nome" style="ellipse;whiteSpace=wrap;html=1;align=center;" parent="1" vertex="1">
          <mxGeometry x="210" y="80" width="60" height="40" as="geometry" />
        </mxCell>
        <mxCell id="4-IF-Jm48n_dMOYQNF0S-82" value="" style="line;strokeWidth=1;rotatable=0;dashed=0;labelPosition=right;align=left;verticalAlign=middle;spacingTop=0;spacingLeft=6;points=[];portConstraint=eastwest;" parent="1" vertex="1">
          <mxGeometry x="200" y="95" width="10" height="10" as="geometry" />
        </mxCell>
        <mxCell id="4-IF-Jm48n_dMOYQNF0S-83" value="Hora" style="ellipse;whiteSpace=wrap;html=1;align=center;" parent="1" vertex="1">
          <mxGeometry x="200" y="160" width="60" height="40" as="geometry" />
        </mxCell>
        <mxCell id="4-IF-Jm48n_dMOYQNF0S-85" value="" style="endArrow=none;html=1;rounded=0;exitX=0.75;exitY=1;exitDx=0;exitDy=0;entryX=0;entryY=0.5;entryDx=0;entryDy=0;" parent="1" source="4-IF-Jm48n_dMOYQNF0S-74" target="4-IF-Jm48n_dMOYQNF0S-83" edge="1">
          <mxGeometry relative="1" as="geometry">
            <mxPoint x="100" y="220" as="sourcePoint" />
            <mxPoint x="260" y="220" as="targetPoint" />
            <Array as="points">
              <mxPoint x="170" y="180" />
            </Array>
          </mxGeometry>
        </mxCell>
        <mxCell id="4-IF-Jm48n_dMOYQNF0S-86" value="Data" style="ellipse;whiteSpace=wrap;html=1;align=center;" parent="1" vertex="1">
          <mxGeometry x="460" y="370" width="60" height="40" as="geometry" />
        </mxCell>
        <mxCell id="4-IF-Jm48n_dMOYQNF0S-87" value="Pago" style="ellipse;whiteSpace=wrap;html=1;align=center;" parent="1" vertex="1">
          <mxGeometry x="520" y="370" width="60" height="40" as="geometry" />
        </mxCell>
        <mxCell id="4-IF-Jm48n_dMOYQNF0S-88" value="" style="endArrow=none;html=1;rounded=0;exitX=0;exitY=1;exitDx=0;exitDy=0;entryX=0.5;entryY=0;entryDx=0;entryDy=0;" parent="1" source="4-IF-Jm48n_dMOYQNF0S-37" target="4-IF-Jm48n_dMOYQNF0S-86" edge="1">
          <mxGeometry relative="1" as="geometry">
            <mxPoint x="430" y="390" as="sourcePoint" />
            <mxPoint x="590" y="390" as="targetPoint" />
          </mxGeometry>
        </mxCell>
        <mxCell id="4-IF-Jm48n_dMOYQNF0S-89" value="" style="endArrow=none;html=1;rounded=0;exitX=1;exitY=1;exitDx=0;exitDy=0;entryX=0.5;entryY=0;entryDx=0;entryDy=0;" parent="1" source="4-IF-Jm48n_dMOYQNF0S-37" target="4-IF-Jm48n_dMOYQNF0S-87" edge="1">
          <mxGeometry relative="1" as="geometry">
            <mxPoint x="430" y="390" as="sourcePoint" />
            <mxPoint x="590" y="390" as="targetPoint" />
          </mxGeometry>
        </mxCell>
        <mxCell id="a2vKskjHlxZWwo24lEaI-1" value="&lt;span style=&quot;border-bottom: 1px dotted&quot;&gt;&lt;font style=&quot;vertical-align: inherit&quot;&gt;&lt;font style=&quot;vertical-align: inherit&quot;&gt;Sigla&lt;/font&gt;&lt;/font&gt;&lt;/span&gt;" style="ellipse;whiteSpace=wrap;html=1;align=center;" vertex="1" parent="1">
          <mxGeometry x="210" y="120" width="60" height="40" as="geometry" />
        </mxCell>
        <mxCell id="a2vKskjHlxZWwo24lEaI-2" value="&lt;font style=&quot;vertical-align: inherit&quot;&gt;&lt;font style=&quot;vertical-align: inherit&quot;&gt;Composto&lt;/font&gt;&lt;/font&gt;" style="shape=rhombus;double=1;perimeter=rhombusPerimeter;whiteSpace=wrap;html=1;align=center;" vertex="1" parent="1">
          <mxGeometry x="100" y="190" width="80" height="80" as="geometry" />
        </mxCell>
        <mxCell id="a2vKskjHlxZWwo24lEaI-5" value="&lt;font style=&quot;vertical-align: inherit&quot;&gt;&lt;font style=&quot;vertical-align: inherit&quot;&gt;Módulos&lt;/font&gt;&lt;/font&gt;" style="whiteSpace=wrap;html=1;align=center;" vertex="1" parent="1">
          <mxGeometry x="80" y="290" width="120" height="80" as="geometry" />
        </mxCell>
        <mxCell id="a2vKskjHlxZWwo24lEaI-6" value="&lt;font style=&quot;vertical-align: inherit&quot;&gt;&lt;font style=&quot;vertical-align: inherit&quot;&gt;Curso&lt;/font&gt;&lt;/font&gt;" style="whiteSpace=wrap;html=1;align=center;" vertex="1" parent="1">
          <mxGeometry x="340" y="290" width="120" height="80" as="geometry" />
        </mxCell>
        <mxCell id="a2vKskjHlxZWwo24lEaI-7" value="&lt;font style=&quot;vertical-align: inherit&quot;&gt;&lt;font style=&quot;vertical-align: inherit&quot;&gt;Professor&lt;/font&gt;&lt;/font&gt;" style="ellipse;shape=doubleEllipse;margin=3;whiteSpace=wrap;html=1;align=center;" vertex="1" parent="1">
          <mxGeometry x="340" y="210" width="60" height="40" as="geometry" />
        </mxCell>
        <mxCell id="4-IF-Jm48n_dMOYQNF0S-67" value="Nome" style="ellipse;whiteSpace=wrap;html=1;align=center;" parent="1" vertex="1">
          <mxGeometry x="80" y="380" width="60" height="40" as="geometry" />
        </mxCell>
        <mxCell id="a2vKskjHlxZWwo24lEaI-12" value="" style="shape=link;html=1;rounded=0;entryX=0.5;entryY=0;entryDx=0;entryDy=0;" edge="1" parent="1" target="4-IF-Jm48n_dMOYQNF0S-19">
          <mxGeometry relative="1" as="geometry">
            <mxPoint x="400" y="370" as="sourcePoint" />
            <mxPoint x="560" y="370" as="targetPoint" />
          </mxGeometry>
        </mxCell>
        <mxCell id="a2vKskjHlxZWwo24lEaI-13" value="1" style="resizable=0;html=1;align=right;verticalAlign=bottom;" connectable="0" vertex="1" parent="a2vKskjHlxZWwo24lEaI-12">
          <mxGeometry x="1" relative="1" as="geometry">
            <mxPoint x="-10" as="offset" />
          </mxGeometry>
        </mxCell>
        <mxCell id="a2vKskjHlxZWwo24lEaI-18" value="N" style="text;strokeColor=none;fillColor=none;spacingLeft=4;spacingRight=4;overflow=hidden;rotatable=0;points=[[0,0.5],[1,0.5]];portConstraint=eastwest;fontSize=12;" vertex="1" parent="1">
          <mxGeometry x="460" y="330" width="40" height="30" as="geometry" />
        </mxCell>
      </root>
    </mxGraphModel>
  </diagram>
</mxfile>
